<svg width="1366" height="6846" viewBox="0 0 1366 6846" fill="none" xmlns="http://www.w3.org/2000/svg">
<g clip-path="url(#clip0_223_16)">
<rect width="1366" height="6846" fill="url(#paint0_linear_223_16)"/>
<g filter="url(#filter0_f_223_16)">
<path d="M990.5 -580C1244.86 -267.198 634.63 -191.12 848.13 611.38C588.13 1202.88 -119.88 842.562 -374.24 529.76C-628.6 216.957 -529.292 -285.047 -152.43 -591.499C224.432 -897.95 736.14 -892.802 990.5 -580Z" fill="url(#paint1_linear_223_16)"/>
</g>
<g style="mix-blend-mode:color-dodge" opacity="0.3">
<path d="M-711.487 411.809C-591.956 200.472 -212.817 -171.399 347.487 31.8141C1047.87 285.83 1772.51 15.7627 1915.71 -148.042C2030.28 -279.086 2082.46 -343.136 2094.22 -358.78M-727.938 403.336C-605.718 194.279 -222.356 -169.972 333.329 45.4791C1027.94 314.794 1754.29 59.862 1899.43 -101.095C2015.54 -229.861 2068.48 -292.878 2080.44 -308.291M-744.312 394.485C-619.44 187.767 -231.969 -168.772 318.935 58.817C1007.57 343.303 1735.42 103.545 1882.45 -54.522C2000.07 -180.976 2053.76 -242.944 2065.91 -258.122M-760.605 385.258C-633.117 180.937 -241.651 -167.799 304.312 71.8221C986.765 371.349 1715.91 146.797 1864.78 -8.33817C1983.88 -132.446 2038.3 -193.35 2050.63 -208.288M-776.812 375.656C-646.746 173.79 -251.4 -167.056 289.463 84.4891C965.542 398.921 1695.76 189.604 1846.43 37.4411C1966.97 -84.2895 2022.12 -144.112 2034.63 -158.806M-792.927 365.68C-660.322 166.325 -261.211 -166.544 274.396 96.813C943.905 426.01 1674.98 231.952 1827.41 82.8006C1949.36 -36.5203 2005.21 -95.2453 2017.89 -109.693M-808.945 355.332C-673.841 158.545 -271.082 -166.265 259.116 108.789C921.863 452.606 1653.59 273.827 1807.73 127.727C1931.05 10.8462 1987.58 -46.7661 2000.44 -60.9622M-824.862 344.614C-687.297 150.449 -281.008 -166.221 243.628 120.411C899.423 478.701 1631.59 315.215 1787.4 172.203C1912.04 57.7939 1969.25 1.30964 1982.28 -12.6313M-840.671 333.526C-700.687 142.039 -290.987 -166.412 227.938 131.675C876.594 504.285 1608.98 356.103 1766.41 216.217C1892.36 104.308 1950.22 48.9667 1963.41 35.2846M-856.369 322.072C-714.006 133.316 -301.014 -166.841 212.052 142.577C853.384 529.349 1585.79 396.478 1744.8 259.753C1872 150.373 1930.5 96.1893 1943.85 82.7697M-871.949 310.253C-727.25 124.281 -311.086 -167.509 195.976 153.111C829.803 553.885 1562.01 436.326 1722.55 302.798C1850.98 195.976 1910.1 142.963 1923.6 129.81M-887.408 298.07C-740.415 114.934 -321.199 -168.416 179.715 163.273C805.859 577.884 1537.66 475.634 1699.68 345.337C1829.3 241.1 1889.02 189.273 1902.67 176.389M-902.74 285.527C-753.495 105.278 -331.35 -169.564 163.277 173.059C781.561 601.339 1512.74 514.39 1676.2 387.357C1806.97 285.732 1867.27 235.103 1881.08 222.492M-917.939 272.625C-766.488 95.3132 -341.536 -170.955 146.666 182.465C756.917 624.24 1487.28 552.58 1652.12 428.845C1784 329.856 1844.87 280.44 1858.82 268.106M-933.002 259.366C-779.389 85.0421 -351.751 -172.588 129.889 191.487C731.938 646.58 1461.26 590.194 1627.45 469.787C1760.4 373.461 1821.82 325.269 1835.91 313.214M-947.924 245.754C-792.193 74.4654 -361.994 -174.466 112.951 200.12C706.632 668.351 1434.72 627.219 1602.2 510.17C1736.18 416.531 1798.13 369.576 1812.36 357.804M-962.699 231.791C-804.896 63.5854 -372.259 -176.588 95.8599 208.361C681.009 689.546 1407.65 663.642 1576.37 549.981C1711.35 459.052 1773.82 413.348 1788.18 401.861M-977.323 217.479C-817.494 52.4037 -382.544 -178.956 78.6204 216.206C655.076 710.158 1380.07 699.453 1549.98 589.208C1685.92 501.013 1748.88 456.569 1763.37 445.371M-991.792 202.821C-829.983 40.9224 -392.846 -181.57 61.2394 223.652C628.846 730.179 1351.98 734.64 1523.04 627.839C1659.9 542.398 1723.34 499.227 1737.95 488.321M-1006.1 187.821C-842.36 29.1432 -403.159 -184.431 43.7231 230.695C602.326 749.602 1323.4 769.192 1495.56 665.861C1633.29 583.196 1697.19 541.308 1711.93 530.697M-1020.24 172.481C-854.619 17.0681 -413.48 -187.539 26.0779 237.333C575.526 768.422 1294.34 803.097 1467.55 703.262C1606.12 623.394 1670.46 582.799 1685.31 572.486M-1034.22 156.804C-866.757 4.69957 -423.807 -190.895 8.3097 243.561C548.456 786.631 1264.81 836.346 1439.02 740.03C1578.38 662.978 1643.14 623.688 1658.11 613.674M-1048.02 140.793C-878.769 -7.96046 -434.135 -194.499 -9.57498 249.378C521.125 804.223 1234.82 868.927 1409.97 776.155C1550.1 701.937 1615.26 663.961 1630.33 654.25M-1061.64 124.453C-890.653 -20.9095 -444.461 -198.351 -27.5697 254.779C493.544 821.193 1204.38 900.83 1380.43 811.624C1521.27 740.259 1586.82 703.606 1601.99 694.201M-1075.08 107.785C-902.403 -34.1451 -454.78 -202.452 -45.6678 259.764C465.723 837.534 1173.5 932.046 1350.4 846.427C1491.92 777.932 1557.84 742.612 1573.1 733.514" stroke="url(#paint2_linear_223_16)"/>
</g>
</g>
<defs>
<filter id="filter0_f_223_16" x="-1029.21" y="-1332.01" width="2596.87" height="2774.41" filterUnits="userSpaceOnUse" color-interpolation-filters="sRGB">
<feFlood flood-opacity="0" result="BackgroundImageFix"/>
<feBlend mode="normal" in="SourceGraphic" in2="BackgroundImageFix" result="shape"/>
<feGaussianBlur stdDeviation="257" result="effect1_foregroundBlur_223_16"/>
</filter>
<linearGradient id="paint0_linear_223_16" x1="8.93033e-06" y1="36" x2="1288" y2="3423" gradientUnits="userSpaceOnUse">
<stop stop-color="#3F0AB0"/>
<stop offset="1" stop-color="#2E0450"/>
</linearGradient>
<linearGradient id="paint1_linear_223_16" x1="-486.308" y1="73.4146" x2="1097.23" y2="-57.3486" gradientUnits="userSpaceOnUse">
<stop stop-color="white"/>
<stop offset="1" stop-color="#EEABFF"/>
</linearGradient>
<linearGradient id="paint2_linear_223_16" x1="-530.518" y1="13.2685" x2="1366.36" y2="470.916" gradientUnits="userSpaceOnUse">
<stop stop-color="#F032BB" stop-opacity="0.33"/>
<stop offset="1" stop-color="#6D062B"/>
</linearGradient>
<clipPath id="clip0_223_16">
<rect width="1366" height="6846" fill="white"/>
</clipPath>
</defs>
</svg>
