<?xml version="1.0" encoding="utf-8"?>
<!-- Generator: Adobe Illustrator 26.0.0, SVG Export Plug-In . SVG Version: 6.00 Build 0)  -->
<svg version="1.1" id="Слой_1" xmlns="http://www.w3.org/2000/svg" xmlns:xlink="http://www.w3.org/1999/xlink" x="0px" y="0px"
	 viewBox="0 0 173.8 52" style="enable-background:new 0 0 173.8 52;" xml:space="preserve">
<style type="text/css">
	.st0{opacity:0.26;}
	.st1{fill:url(#SVGID_1_);}
	.st2{fill:url(#SVGID_00000159438159251343944920000001174041655537532563_);}
	.st3{fill:url(#SVGID_00000111183904896035602550000012954756691485382299_);}
	.st4{fill:url(#SVGID_00000135672074826094845180000010106627600092410271_);}
	.st5{fill:#FFFFFF;}
	.st6{fill:url(#SVGID_00000170270234385891557540000002651305354172730006_);}
	.st7{fill:url(#SVGID_00000079444980008163374780000000775489139833027733_);}
	.st8{fill:url(#SVGID_00000140012696854826430440000011989107039268296588_);}
	.st9{fill:url(#SVGID_00000109023156719695300450000011925623658413509556_);}
</style>
<g>
	<g class="st0">
		<path d="M125.4,18.1c-1.2,0-1.9-1.5-1.9-2.9c0-1.1,2.1-3.1,2.6-3.1c0.1,0-1.3,1.7-1,2c3.1,0,10.2-4,10.2-7.6c0-2-1.8-3.2-4.5-3.2
			c-13.8,0-38.1,23.5-37.1,36c0.3,3.8,3.2,5.6,6.6,4.8c7.5-1.8,9.8-7.5,20.4-16.1c0.1-0.1,0.4-0.1,0.5,0c0.1,0.1,0.1,0.1,0,0.1
			c-7.9,7.7-13.2,17.3-22.4,18.9c-4.7,0.8-9-2.2-9.3-7.7c-0.9-15.7,25.7-37.2,40.8-37.2c3.9,0,6.7,1.7,6.7,5.1
			C136.9,11.8,129.8,18.1,125.4,18.1z"/>
		<path d="M126.2,33.1c0.2-0.4-0.3-0.8-0.7-0.5c-3.1,2.7-8.4,6.9-9.8,6.9c-0.1,0-0.3-0.1-0.4-0.1c-0.8-0.4-2-2.1-2-3
			c0-4.9,10.3-14.9,18.6-14.9c1.7,0,4,0.7,4,2.8c0,0.8-0.4,1.5-0.9,2.1c-0.1,0-0.2,0-0.1,0c0.2-0.4,0.5-0.9,0.5-1.6
			c0-1.3-0.9-2-2.2-1.9c-2.6,0.1-5.9,2-8.8,4.5c-4.3,3.6-7.6,9.3-7.2,9.5c0.1,0,0.2,0,0.3,0c1.5-0.5,7.8-5,10.1-7
			c0.8-0.7,3.7-3.6,4.9-4.2c0.7-0.4,1.9,1.2,2.2,2.1c0.1,0.2,0,0.4-0.2,0.5c-0.9,0.6-4.2,4.7-5.4,7.3c-0.1,0.3-0.2,0.5-0.3,0.7
			c-0.1,0.4,0.2,0.7,0.6,0.5c3.1-1.5,8.7-6.9,11.3-9.3c0.2-0.2,0.4,0.1,0.3,0.3c-3.9,4.3-11.2,11.8-13.9,11.8
			c-0.2,0-0.4-0.1-0.8-0.3c-0.6-0.4-1.5-1.3-1.5-2.1c0-0.4,0.2-1,0.4-1.6c0,0,0,0,0,0C125.4,34.7,125.8,33.9,126.2,33.1z"/>
		<path d="M154.7,36.9c0-1.8,2.5-6.2,4.8-9.3c0.3-0.4-0.2-0.9-0.6-0.6c-6.3,5.2-9.9,11.1-11,11.1c-0.6,0-2.1-1.4-2.1-2.3
			c0-1.3,2-5.4,4.3-8.5c0.3-0.4-0.2-0.9-0.6-0.6c-3.5,2.6-6.6,5.9-9.2,8.8c-0.8,0.9-1.3,1.4-1.6,1.8c-0.8,1-1.2,1.7-1.2,2.2
			c0,0.3-0.3,0.5-0.5,0.5c-0.9-0.3-1.7-1.3-2-2.3c-0.1-0.3,0.1-1.5,1.3-3.6c1.9-3.6,4.6-7.8,7.1-10.7c0.6-0.8,1.3-1.4,1.8-1.8
			c0.2-0.2,0.4-0.2,0.6-0.2c1.1,0,2.8,1.8,2.8,2.9c0,0.2-0.2,0-0.5-0.1c-0.3,0-0.9,0.4-1.5,1.1c-1,1.1-2.5,3.2-3.9,5.3
			c-0.3,0.4,0.3,0.9,0.7,0.5c4-4,9.5-8.7,10.8-9c0.1,0,0.2,0,0.3,0c0.9,0,2.4,2.2,1.9,2.7c-1.6,1.7-4.1,5.5-5.5,8.1
			c-0.2,0.5,0.4,0.9,0.7,0.5c4.5-5.2,11.4-11.8,13.1-11.8c1,0,2.5,2.4,1.9,2.9c-1,0.8-6.8,8.8-7.9,11.8c-0.1,0.4,0.2,0.7,0.6,0.5
			c3.2-1.4,9-7,11.6-9.5c0.3-0.2,0.5,0.1,0.4,0.3c-3.9,4.3-11.3,11.8-14,11.8C156,39.4,154.7,37.7,154.7,36.9z"/>
	</g>
	<g>
		<linearGradient id="SVGID_1_" gradientUnits="userSpaceOnUse" x1="12.5896" y1="14.9581" x2="16.6133" y2="7.9888">
			<stop  offset="0" style="stop-color:#FF67A5"/>
			<stop  offset="0.7818" style="stop-color:#AB56FC"/>
			<stop  offset="0.8042" style="stop-color:#A956FF"/>
		</linearGradient>
		<path class="st1" d="M13.5,15.5L13.5,15.5l3.2-1.9c0,0-4.5-1.4-1.4-7.3C15.3,6.2,9.7,9.5,13.5,15.5z"/>
		
			<linearGradient id="SVGID_00000147179543207691770320000009325537288629175173_" gradientUnits="userSpaceOnUse" x1="-631.5256" y1="13.9335" x2="-628.0631" y2="7.9362" gradientTransform="matrix(-1 0 0 1 -595.1043 0)">
			<stop  offset="0" style="stop-color:#FF67A5"/>
			<stop  offset="0.7818" style="stop-color:#AB56FC"/>
			<stop  offset="0.8042" style="stop-color:#A956FF"/>
		</linearGradient>
		<path style="fill:url(#SVGID_00000147179543207691770320000009325537288629175173_);" d="M35.7,14.4L35.7,14.4l-2.8-1.7
			c0,0,3.9-1.2,1.2-6.3C34.1,6.4,38.9,9.2,35.7,14.4z"/>
	</g>
	<g>
		
			<linearGradient id="SVGID_00000163035768344913142720000010284510371319442861_" gradientUnits="userSpaceOnUse" x1="14.3225" y1="53.8584" x2="23.832" y2="37.3876">
			<stop  offset="0" style="stop-color:#FF67A5"/>
			<stop  offset="0.7818" style="stop-color:#AB56FC"/>
			<stop  offset="0.8042" style="stop-color:#A956FF"/>
		</linearGradient>
		<path style="fill:url(#SVGID_00000163035768344913142720000010284510371319442861_);" d="M13.5,37.1c0,0-6.6,0.9-7.5,5.5
			s2.3,4.7,6.6,3.3c4.4-1.4,14.7-4.8,24.4,0.5c0,0-9.1-3-17.8-0.7S7.1,51.6,3.8,47.1s1.9-11.8,8-11.9L13.5,37.1z"/>
		
			<linearGradient id="SVGID_00000026138470874855765130000015401484220956059521_" gradientUnits="userSpaceOnUse" x1="36.5516" y1="50.5208" x2="39.1591" y2="46.0043">
			<stop  offset="0" style="stop-color:#FF67A5"/>
			<stop  offset="0.972" style="stop-color:#AB56FC"/>
			<stop  offset="1" style="stop-color:#A956FF"/>
		</linearGradient>
		<path style="fill:url(#SVGID_00000026138470874855765130000015401484220956059521_);" d="M36.7,43.3c0,0,1.5,2.3,1.9,4.3
			c0,0-3.1-0.2-4,0c0,0,3.9,0.8,5.8,3.5C40.4,51,40.9,46,36.7,43.3z"/>
	</g>
	<g class="st0">
		<path d="M17.2,37.9c-2-1.1-3.6-2.6-4.7-4.5c-1.1-1.9-1.7-4.1-1.7-6.4c0-2.4,0.6-4.5,1.7-6.4c1.1-1.9,2.7-3.4,4.7-4.5
			c2-1.1,4.2-1.6,6.7-1.6c2.5,0,4.7,0.5,6.7,1.6c2,1.1,3.5,2.6,4.7,4.5c1.1,1.9,1.7,4.1,1.7,6.4s-0.6,4.5-1.7,6.4
			c-1.1,1.9-2.7,3.4-4.7,4.5c-2,1.1-4.2,1.6-6.7,1.6C21.4,39.6,19.2,39,17.2,37.9z M28.8,35.2c1.4-0.8,2.6-1.9,3.4-3.4
			c0.8-1.4,1.2-3,1.2-4.8c0-1.8-0.4-3.4-1.2-4.8c-0.8-1.4-2-2.6-3.4-3.4c-1.4-0.8-3.1-1.2-4.9-1.2c-1.8,0-3.4,0.4-4.9,1.2
			c-1.5,0.8-2.6,1.9-3.4,3.4c-0.8,1.4-1.2,3-1.2,4.8c0,1.8,0.4,3.4,1.2,4.8c0.8,1.4,2,2.6,3.4,3.4c1.5,0.8,3.1,1.2,4.9,1.2
			C25.7,36.4,27.3,36,28.8,35.2z"/>
		<path d="M57.4,22.6c1.4,1.4,2.1,3.4,2.1,6v10.7h-3.4V29c0-1.8-0.4-3.2-1.3-4.1c-0.9-0.9-2.1-1.4-3.7-1.4c-1.8,0-3.3,0.5-4.3,1.6
			c-1.1,1.1-1.6,2.6-1.6,4.6v9.6h-3.4V20.7H45v2.8c0.7-1,1.6-1.7,2.8-2.2c1.2-0.5,2.5-0.8,4-0.8C54.1,20.5,56,21.2,57.4,22.6z"/>
		<path d="M65.7,13.2h3.4v26.1h-3.4V13.2z"/>
		<path d="M92,20.7l-9,20.5c-0.8,1.9-1.7,3.2-2.8,4c-1.1,0.8-2.3,1.2-3.8,1.2c-0.9,0-1.8-0.1-2.7-0.4c-0.9-0.3-1.6-0.7-2.1-1.3
			l1.4-2.5c1,0.9,2.1,1.4,3.3,1.4c0.8,0,1.5-0.2,2.1-0.6c0.5-0.4,1-1.2,1.5-2.2l0.6-1.3l-8.2-18.6h3.5l6.5,14.9l6.4-14.9H92z"/>
	</g>
	<g>
		<path class="st5" d="M18.5,36.6c-2-1.1-3.6-2.6-4.7-4.5c-1.1-1.9-1.7-4.1-1.7-6.4c0-2.4,0.6-4.5,1.7-6.4c1.1-1.9,2.7-3.4,4.7-4.5
			c2-1.1,4.2-1.6,6.7-1.6c2.5,0,4.7,0.5,6.7,1.6c2,1.1,3.5,2.6,4.7,4.5c1.1,1.9,1.7,4.1,1.7,6.4s-0.6,4.5-1.7,6.4
			c-1.1,1.9-2.7,3.4-4.7,4.5c-2,1.1-4.2,1.6-6.7,1.6C22.7,38.2,20.5,37.7,18.5,36.6z M30.1,33.9c1.4-0.8,2.6-1.9,3.4-3.4
			c0.8-1.4,1.2-3,1.2-4.8c0-1.8-0.4-3.4-1.2-4.8c-0.8-1.4-2-2.6-3.4-3.4c-1.4-0.8-3.1-1.2-4.9-1.2c-1.8,0-3.4,0.4-4.9,1.2
			c-1.5,0.8-2.6,1.9-3.4,3.4c-0.8,1.4-1.2,3-1.2,4.8c0,1.8,0.4,3.4,1.2,4.8c0.8,1.4,2,2.6,3.4,3.4c1.5,0.8,3.1,1.2,4.9,1.2
			C27,35.1,28.7,34.7,30.1,33.9z"/>
		
			<linearGradient id="SVGID_00000168811228464683667160000004104306924817908635_" gradientUnits="userSpaceOnUse" x1="21.3674" y1="32.3067" x2="29.022" y2="19.0486">
			<stop  offset="0" style="stop-color:#FF67A5"/>
			<stop  offset="0.972" style="stop-color:#AB56FC"/>
			<stop  offset="1" style="stop-color:#A956FF"/>
		</linearGradient>
		<path style="fill:url(#SVGID_00000168811228464683667160000004104306924817908635_);" d="M25.2,18c-4.2,0-7.7,3.4-7.7,7.7
			c0,4.2,3.4,7.7,7.7,7.7c4.2,0,7.7-3.4,7.7-7.7C32.8,21.5,29.4,18,25.2,18z M25.2,31.3c-3.1,0-5.7-2.5-5.7-5.7
			c0-3.1,2.5-5.7,5.7-5.7c3.1,0,5.7,2.5,5.7,5.7C30.9,28.7,28.3,31.3,25.2,31.3z M25.2,21c-2.6,0-4.7,2.1-4.7,4.7
			c0,2.6,2.1,4.7,4.7,4.7c2.6,0,4.7-2.1,4.7-4.7C29.9,23.1,27.8,21,25.2,21z M24.4,22.5c-2.3,0.6-2.8,3.1-2.8,3.1s-0.8-2.6,2-3.7
			c2.7-1.1,4,0.9,4.1,1C27.6,22.9,26.6,22,24.4,22.5z"/>
		<path class="st5" d="M58.7,21.2c1.4,1.4,2.1,3.4,2.1,6V38h-3.4V27.6c0-1.8-0.4-3.2-1.3-4.1c-0.9-0.9-2.1-1.4-3.7-1.4
			c-1.8,0-3.3,0.5-4.3,1.6c-1.1,1.1-1.6,2.6-1.6,4.6V38h-3.4V19.4h3.2v2.8c0.7-1,1.6-1.7,2.8-2.2c1.2-0.5,2.5-0.8,4-0.8
			C55.4,19.2,57.3,19.9,58.7,21.2z"/>
		<path class="st5" d="M67.1,11.9h3.4V38h-3.4V11.9z"/>
		<path class="st5" d="M93.3,19.4l-9,20.5c-0.8,1.9-1.7,3.2-2.8,4c-1.1,0.8-2.3,1.2-3.8,1.2c-0.9,0-1.8-0.1-2.7-0.4
			c-0.9-0.3-1.6-0.7-2.1-1.3l1.4-2.5c1,0.9,2.1,1.4,3.3,1.4c0.8,0,1.5-0.2,2.1-0.6c0.5-0.4,1-1.2,1.5-2.2l0.6-1.3l-8.2-18.6h3.5
			l6.5,14.9L90,19.4H93.3z"/>
	</g>
	<g>
		
			<linearGradient id="SVGID_00000149344621148883673240000010073817461680511920_" gradientUnits="userSpaceOnUse" x1="99.1485" y1="19.5066" x2="175.5378" y2="38.7039">
			<stop  offset="0" style="stop-color:#FF67A5"/>
			<stop  offset="1" style="stop-color:#A956FF"/>
		</linearGradient>
		<path style="fill:url(#SVGID_00000149344621148883673240000010073817461680511920_);" d="M126.6,16.9c-1.2,0-1.9-1.5-1.9-2.9
			c0-1.1,2.1-3.1,2.6-3.1c0.1,0-1.3,1.7-1,2c3.1,0,10.2-4,10.2-7.6c0-2-1.8-3.2-4.5-3.2c-13.8,0-38.1,23.5-37.1,36
			c0.3,3.8,3.2,5.6,6.6,4.8c7.5-1.8,9.8-7.5,20.4-16.1c0.1-0.1,0.4-0.1,0.5,0c0.1,0.1,0.1,0.1,0,0.1c-7.9,7.7-13.2,17.3-22.4,18.9
			c-4.7,0.8-9-2.2-9.3-7.7C89.7,22.5,116.3,1,131.4,1c3.9,0,6.7,1.7,6.7,5.1C138.1,10.6,131,16.9,126.6,16.9z"/>
		
			<linearGradient id="SVGID_00000117652597963229111020000009033721246318281650_" gradientUnits="userSpaceOnUse" x1="87.048" y1="19.5277" x2="166.5014" y2="39.495">
			<stop  offset="0" style="stop-color:#FF67A5"/>
			<stop  offset="1" style="stop-color:#A956FF"/>
		</linearGradient>
		<path style="fill:url(#SVGID_00000117652597963229111020000009033721246318281650_);" d="M127.4,31.9c0.2-0.4-0.3-0.8-0.7-0.5
			c-3.1,2.7-8.4,6.9-9.8,6.9c-0.1,0-0.3-0.1-0.4-0.1c-0.8-0.4-2-2.1-2-3c0-4.9,10.3-14.9,18.6-14.9c1.7,0,4,0.7,4,2.8
			c0,0.8-0.4,1.5-0.9,2.1c-0.1,0-0.2,0-0.1,0c0.2-0.4,0.5-0.9,0.5-1.6c0-1.3-0.9-2-2.2-1.9c-2.6,0.1-5.9,2-8.8,4.5
			c-4.3,3.6-7.6,9.3-7.2,9.5c0.1,0,0.2,0,0.3,0c1.5-0.5,7.8-5,10.1-7c0.8-0.7,3.7-3.6,4.9-4.2c0.7-0.4,1.9,1.2,2.2,2.1
			c0.1,0.2,0,0.4-0.2,0.5c-0.9,0.6-4.2,4.7-5.4,7.3c-0.1,0.3-0.2,0.5-0.3,0.7c-0.1,0.4,0.2,0.7,0.6,0.5c3.1-1.5,8.7-6.9,11.3-9.3
			c0.2-0.2,0.4,0.1,0.3,0.3c-3.9,4.3-11.2,11.8-13.9,11.8c-0.2,0-0.4-0.1-0.8-0.3c-0.6-0.4-1.5-1.3-1.5-2.1c0-0.4,0.2-1,0.4-1.6
			c0,0,0,0,0,0C126.6,33.4,127,32.6,127.4,31.9z"/>
		
			<linearGradient id="SVGID_00000145043644796510932380000012300096711670015619_" gradientUnits="userSpaceOnUse" x1="88.5301" y1="13.6303" x2="167.9835" y2="33.5976">
			<stop  offset="0" style="stop-color:#FF67A5"/>
			<stop  offset="1" style="stop-color:#A956FF"/>
		</linearGradient>
		<path style="fill:url(#SVGID_00000145043644796510932380000012300096711670015619_);" d="M155.9,35.7c0-1.8,2.5-6.2,4.8-9.3
			c0.3-0.4-0.2-0.9-0.6-0.6c-6.3,5.2-9.9,11.1-11,11.1c-0.6,0-2.1-1.4-2.1-2.3c0-1.3,2-5.4,4.3-8.5c0.3-0.4-0.2-0.9-0.6-0.6
			c-3.5,2.6-6.6,5.9-9.2,8.8c-0.8,0.9-1.3,1.4-1.6,1.8c-0.8,1-1.2,1.7-1.2,2.2c0,0.3-0.3,0.5-0.5,0.5c-0.9-0.3-1.7-1.3-2-2.3
			c-0.1-0.3,0.1-1.5,1.3-3.6c1.9-3.6,4.6-7.8,7.1-10.7c0.6-0.8,1.3-1.4,1.8-1.8c0.2-0.2,0.4-0.2,0.6-0.2c1.1,0,2.8,1.8,2.8,2.9
			c0,0.2-0.2,0-0.5-0.1c-0.3,0-0.9,0.4-1.5,1.1c-1,1.1-2.5,3.2-3.9,5.3c-0.3,0.4,0.3,0.9,0.7,0.5c4-4,9.5-8.7,10.8-9
			c0.1,0,0.2,0,0.3,0c0.9,0,2.4,2.2,1.9,2.7c-1.6,1.7-4.1,5.5-5.5,8.1c-0.2,0.5,0.4,0.9,0.7,0.5c4.5-5.2,11.4-11.8,13.1-11.8
			c1,0,2.5,2.4,1.9,2.9c-1,0.8-6.8,8.8-7.9,11.8c-0.1,0.4,0.2,0.7,0.6,0.5c3.2-1.4,9-7,11.6-9.5c0.3-0.2,0.5,0.1,0.4,0.3
			c-3.9,4.3-11.3,11.8-14,11.8C157.2,38.2,155.9,36.5,155.9,35.7z"/>
	</g>
</g>
</svg>
